<?xml version="1.0" encoding="utf-8"?>
<!-- Generator: Adobe Illustrator 26.0.1, SVG Export Plug-In . SVG Version: 6.00 Build 0)  -->
<svg version="1.1" xmlns="http://www.w3.org/2000/svg" xmlns:xlink="http://www.w3.org/1999/xlink" x="0px" y="0px"
	 viewBox="0 0 1000 482.82" style="enable-background:new 0 0 1000 482.82;" xml:space="preserve">
<style type="text/css">
	.st0{fill:#F5D73F;}
	.st1{fill:#55B9C8;}
	.st2{display:none;}
	.st3{display:inline;}
	.st4{fill:#FFFFFF;}
</style>
<g id="Layer_1">
	<g>
		<g>
			<g>
				<path class="st0" d="M984.34,413.14L775.7,51.8c-6.01-10.41-21.04-10.41-27.05,0L540.05,413.14
					c-6.01,10.41,1.5,23.42,13.52,23.42h417.24C982.84,436.56,990.35,423.55,984.34,413.14z"/>
				<path class="st1" d="M688.82,257.77c-3.87-8.59-9.74-16.73-17.58-24.41c-7.74-7.68-16.68-13.51-26.77-17.58
					c-9.74-3.87-20.59-5.83-32.65-5.83c-23.61,0-43.45,7.79-59.47,23.41c-15.62,15.17-23.41,33.4-23.41,54.7
					c0,7.74,1.11,15.37,3.37,22.86h-18.68c-6.38,0-11.56-5.18-11.56-11.56v-68.31c0-6.21-5.04-11.25-11.25-11.25h-33.21
					c-6.21,0-11.25,5.04-11.25,11.25v51.19c0,10.3-0.75,17.08-2.21,20.29c-1.56,5.48-7.79,8.29-18.64,8.39h-15.72
					c2.16-6.98,3.27-14.62,3.27-22.86c0-11.65-1.96-21.75-5.83-30.29c-3.87-8.59-9.74-16.73-17.58-24.41
					c-7.79-7.68-16.68-13.51-26.77-17.58c-9.74-3.87-20.65-5.83-32.7-5.83c-23.61,0-43.45,7.79-59.47,23.41
					c-15.57,15.17-23.41,33.4-23.41,54.7c0,7.74,1.16,15.37,3.37,22.86h-17.73c-6.38,0-11.55-5.17-11.55-11.55v-68.61
					c0-6.05-4.91-10.96-10.96-10.96h-33.89c-6.05,0-10.96,4.91-10.96,10.96v51.48c0,10.3-0.7,17.08-2.06,20.29
					c-1.56,5.48-7.79,8.29-18.64,8.39h-37.44c-6.5,0-11.77-5.27-11.77-11.77v-150.2c0-5.96-4.83-10.78-10.78-10.78H50.09
					c-5.96,0-10.78,4.83-10.78,10.78v167.1c0,27.71,22.46,50.16,50.16,50.16h77.5c17.53,0,34.36-6.98,46.77-19.39l6.54,6.54
					c8.23,8.23,19.38,12.85,31.02,12.85h196.37c17.53,0,34.36-6.98,46.77-19.39l6.49,6.49c8.26,8.26,19.46,12.9,31.14,12.9h79.76
					c11.7,0,22.45-2.06,32.3-6.18c10.35-4.07,19.29-9.8,26.87-17.23c7.74-7.79,13.66-16.02,17.73-24.66
					c3.97-8.89,5.93-18.89,5.93-30.09C694.65,276.4,692.69,266.31,688.82,257.77z M349.06,307.7c-4.67,4.27-10.95,6.43-18.89,6.43
					c-7.84,0-14.12-2.16-18.89-6.43c-4.87-4.22-7.33-10.8-7.33-19.64c0-8.84,2.46-15.42,7.33-19.79c4.87-4.42,11.15-6.58,18.89-6.58
					c7.84,0,14.11,2.16,18.89,6.58c4.72,4.32,7.08,10.9,7.08,19.79C356.14,296.9,353.78,303.48,349.06,307.7z M630.66,307.7
					c-4.62,4.27-10.95,6.43-18.84,6.43c-7.89,0-14.17-2.16-18.89-6.43c-4.92-4.22-7.38-10.8-7.38-19.64
					c0-8.84,2.46-15.42,7.38-19.79c4.82-4.42,11.1-6.58,18.89-6.58c7.79,0,14.11,2.16,18.84,6.58c4.77,4.32,7.13,10.9,7.13,19.79
					C637.79,296.9,635.43,303.48,630.66,307.7z"/>
			</g>
			<g>
				<path d="M93.67,426.62h-7.65v0.78c0,4.3-1.15,7.74-3.44,10.31c-2.29,2.57-5.58,3.86-9.88,3.86H56.85
					c-2.94,0-5.61-0.54-8.02-1.63c-2.41-1.08-4.32-2.6-5.72-4.55c-1.41-1.95-2.11-4.17-2.11-6.66c0-2.45,0.52-6.89,1.56-13.32
					l4.4,0.72c-0.88,5.91-1.32,9.77-1.32,11.57c0,1.89,0.49,3.58,1.48,5.07c0.99,1.49,2.31,2.63,3.98,3.43
					c1.67,0.8,3.49,1.21,5.45,1.21l15.91,0.06c2.85,0,5.05-0.91,6.6-2.74c1.55-1.83,2.32-4.15,2.32-6.96c0-0.52-0.02-0.91-0.06-1.15
					h-1.44c-3.13,0-5.61-0.58-7.42-1.75l1.93-3.44c0.73,0.49,1.5,0.78,2.32,0.88c0.82,0.1,2.02,0.15,3.59,0.15h13.38V426.62z
					 M57.39,445.9h4.58v5.07h-4.58V445.9z M64.92,445.9h4.58v5.07h-4.58V445.9z"/>
				<path d="M116.28,422.46v4.16h-22.6v-4.16h8.98v-25.98h4.64v25.98H116.28z M102.66,431.44h4.58v5.06h-4.58V431.44z"/>
				<path d="M129.91,396.48v30.14h-13.62v-4.16h8.98v-25.98H129.91z M121.47,431.44h4.58v5.06h-4.58V431.44z M129,431.44h4.58v5.06
					H129V431.44z"/>
				<path d="M160.89,426.62h-7.53v0.66c0,9.57-3.32,14.35-9.95,14.35c-0.64,0-1.24-0.02-1.78-0.06c-0.54-0.04-1.02-0.08-1.42-0.12
					l-1.27-0.12v-4.1c2.01,0.16,3.27,0.24,3.8,0.24c2.01,0,3.51-0.79,4.49-2.38c0.99-1.59,1.48-3.81,1.48-6.66v-31.89h4.65v25.92
					h7.53V426.62z"/>
				<path d="M196.57,422.46v4.16h-35.68v-4.16h24.17v-16.33c0-2.01-0.52-3.53-1.56-4.55c-1.04-1.03-2.61-1.54-4.7-1.54
					c-1.81,0-5.39,0.32-10.73,0.97l-1.69,0.18l-0.18-3.44c6.07-1.25,10.61-1.87,13.62-1.87c6.59,0,9.88,3.44,9.88,10.31v16.27
					H196.57z M176.44,431.44h4.58v5.06h-4.58V431.44z"/>
				<path d="M210.19,396.48v30.14h-13.62v-4.16h8.98v-25.98H210.19z M201.81,385.81h4.58v5.06h-4.58V385.81z M209.35,385.81h4.58
					v5.06h-4.58V385.81z"/>
			</g>
			<g>
				<g>
					<path class="st1" d="M163.45,166.51c0.04-0.03,0.1-0.06,0.12-0.1c0.53-1.48,1.65-2.11,3.18-2.24
						c4.02-0.33,8.03-0.69,12.04-1.05c1.31-0.11,2.62-0.24,3.94-0.34c0.39-0.03,0.59-0.2,0.74-0.56c2.14-4.95,4.29-9.89,6.46-14.83
						c0.89-2.02,3.36-2.58,4.99-1.15c0.42,0.37,0.68,0.84,0.9,1.35c2.1,4.84,4.22,9.68,6.3,14.52c0.2,0.47,0.47,0.63,0.96,0.67
						c4.17,0.36,8.33,0.73,12.5,1.1c1.26,0.11,2.51,0.22,3.76,0.34c1.36,0.14,2.28,0.87,2.69,2.12c0.41,1.26,0.05,2.38-0.95,3.26
						c-3.11,2.69-6.23,5.37-9.35,8.06c-0.99,0.85-1.97,1.72-2.98,2.55c-0.33,0.27-0.43,0.52-0.33,0.95
						c1.22,5.18,2.41,10.37,3.61,15.55c0.47,2.03-0.67,3.7-2.72,3.95c-0.77,0.09-1.46-0.16-2.11-0.55
						c-4.57-2.69-9.15-5.36-13.71-8.07c-0.49-0.29-0.83-0.3-1.32-0.01c-4.58,2.71-9.17,5.4-13.76,8.09c-1.67,0.98-3.51,0.6-4.46-0.9
						c-0.48-0.76-0.57-1.58-0.37-2.43c1.19-5.15,2.38-10.3,3.59-15.44c0.13-0.56,0.02-0.89-0.43-1.28
						c-3.96-3.37-7.88-6.77-11.83-10.14c-0.68-0.58-1.19-1.25-1.47-2.08C163.45,167.41,163.45,166.96,163.45,166.51z"/>
				</g>
				<g>
					<path class="st1" d="M546.57,166.51c0.04-0.03,0.1-0.06,0.12-0.1c0.53-1.48,1.65-2.11,3.18-2.24
						c4.02-0.33,8.03-0.69,12.04-1.05c1.31-0.11,2.62-0.24,3.94-0.34c0.39-0.03,0.59-0.2,0.74-0.56c2.14-4.95,4.29-9.89,6.46-14.83
						c0.89-2.02,3.36-2.58,4.99-1.15c0.42,0.37,0.68,0.84,0.9,1.35c2.1,4.84,4.22,9.68,6.3,14.52c0.2,0.47,0.47,0.63,0.96,0.67
						c4.17,0.36,8.33,0.73,12.5,1.1c1.26,0.11,2.51,0.22,3.76,0.34c1.36,0.14,2.28,0.87,2.69,2.12c0.41,1.26,0.05,2.38-0.95,3.26
						c-3.11,2.69-6.23,5.37-9.35,8.06c-0.99,0.85-1.97,1.72-2.98,2.55c-0.33,0.27-0.43,0.52-0.33,0.95
						c1.22,5.18,2.41,10.37,3.61,15.55c0.47,2.03-0.67,3.7-2.72,3.95c-0.77,0.09-1.46-0.16-2.11-0.55
						c-4.57-2.69-9.15-5.36-13.71-8.07c-0.49-0.29-0.83-0.3-1.32-0.01c-4.58,2.71-9.17,5.4-13.76,8.09c-1.67,0.98-3.51,0.6-4.46-0.9
						c-0.48-0.76-0.57-1.58-0.37-2.43c1.19-5.15,2.38-10.3,3.59-15.44c0.13-0.56,0.02-0.89-0.43-1.28
						c-3.96-3.37-7.88-6.77-11.83-10.14c-0.68-0.58-1.19-1.25-1.47-2.08C546.57,167.41,546.57,166.96,546.57,166.51z"/>
				</g>
				<g>
					<path class="st1" d="M612.63,166.51c0.04-0.03,0.1-0.06,0.12-0.1c0.53-1.48,1.65-2.11,3.18-2.24
						c4.02-0.33,8.03-0.69,12.04-1.05c1.31-0.11,2.62-0.24,3.94-0.34c0.39-0.03,0.59-0.2,0.74-0.56c2.14-4.95,4.29-9.89,6.46-14.83
						c0.89-2.02,3.36-2.58,4.99-1.15c0.42,0.37,0.68,0.84,0.9,1.35c2.1,4.84,4.22,9.68,6.3,14.52c0.2,0.47,0.47,0.63,0.96,0.67
						c4.17,0.36,8.33,0.73,12.5,1.1c1.26,0.11,2.51,0.22,3.76,0.34c1.36,0.14,2.28,0.87,2.69,2.12c0.41,1.26,0.05,2.38-0.95,3.26
						c-3.11,2.69-6.23,5.37-9.35,8.06c-0.99,0.85-1.97,1.72-2.98,2.55c-0.33,0.27-0.43,0.52-0.33,0.95
						c1.22,5.18,2.41,10.37,3.61,15.55c0.47,2.03-0.67,3.7-2.72,3.95c-0.77,0.09-1.46-0.16-2.11-0.55
						c-4.57-2.69-9.15-5.36-13.71-8.07c-0.49-0.29-0.83-0.3-1.32-0.01c-4.58,2.71-9.17,5.4-13.76,8.09c-1.67,0.98-3.51,0.6-4.46-0.9
						c-0.48-0.76-0.57-1.58-0.37-2.43c1.19-5.15,2.38-10.3,3.59-15.44c0.13-0.56,0.02-0.89-0.43-1.28
						c-3.96-3.37-7.88-6.77-11.83-10.14c-0.68-0.58-1.19-1.25-1.47-2.08C612.63,167.41,612.63,166.96,612.63,166.51z"/>
				</g>
				<g>
					<path class="st1" d="M383.72,405.52c0.04-0.03,0.1-0.06,0.12-0.1c0.53-1.48,1.65-2.11,3.18-2.24
						c4.02-0.33,8.03-0.69,12.04-1.05c1.31-0.11,2.62-0.24,3.94-0.34c0.39-0.03,0.59-0.2,0.74-0.56c2.14-4.95,4.29-9.89,6.46-14.83
						c0.89-2.02,3.36-2.58,4.99-1.15c0.42,0.37,0.68,0.84,0.9,1.35c2.1,4.84,4.22,9.68,6.3,14.52c0.2,0.47,0.47,0.63,0.96,0.67
						c4.17,0.36,8.33,0.73,12.5,1.1c1.26,0.11,2.51,0.22,3.76,0.34c1.36,0.14,2.28,0.87,2.69,2.12c0.41,1.26,0.05,2.38-0.95,3.26
						c-3.11,2.69-6.23,5.37-9.35,8.06c-0.99,0.85-1.97,1.72-2.98,2.55c-0.33,0.27-0.43,0.52-0.33,0.95
						c1.22,5.18,2.41,10.37,3.61,15.55c0.47,2.03-0.67,3.7-2.72,3.95c-0.77,0.09-1.46-0.16-2.11-0.55
						c-4.57-2.69-9.15-5.36-13.71-8.07c-0.49-0.29-0.83-0.3-1.32-0.01c-4.58,2.71-9.17,5.4-13.76,8.09c-1.67,0.98-3.51,0.6-4.46-0.9
						c-0.48-0.76-0.57-1.58-0.37-2.43c1.19-5.15,2.38-10.3,3.59-15.44c0.13-0.56,0.02-0.89-0.43-1.28
						c-3.96-3.37-7.88-6.77-11.83-10.14c-0.68-0.58-1.19-1.25-1.47-2.08C383.72,406.42,383.72,405.97,383.72,405.52z"/>
				</g>
				<g>
					<path class="st1" d="M449.79,405.52c0.04-0.03,0.1-0.06,0.12-0.1c0.53-1.48,1.65-2.11,3.18-2.24
						c4.02-0.33,8.03-0.69,12.04-1.05c1.31-0.11,2.62-0.24,3.94-0.34c0.39-0.03,0.59-0.2,0.74-0.56c2.14-4.95,4.29-9.89,6.46-14.83
						c0.89-2.02,3.36-2.58,4.99-1.15c0.42,0.37,0.68,0.84,0.9,1.35c2.1,4.84,4.22,9.68,6.3,14.52c0.2,0.47,0.47,0.63,0.96,0.67
						c4.17,0.36,8.33,0.73,12.5,1.1c1.26,0.11,2.51,0.22,3.76,0.34c1.36,0.14,2.28,0.87,2.69,2.12c0.41,1.26,0.05,2.38-0.95,3.26
						c-3.11,2.69-6.23,5.37-9.35,8.06c-0.99,0.85-1.97,1.72-2.98,2.55c-0.33,0.27-0.43,0.52-0.33,0.95
						c1.22,5.18,2.41,10.37,3.61,15.55c0.47,2.03-0.67,3.7-2.72,3.95c-0.77,0.09-1.46-0.16-2.11-0.55
						c-4.57-2.69-9.15-5.36-13.71-8.07c-0.49-0.29-0.83-0.3-1.32-0.01c-4.58,2.71-9.17,5.4-13.76,8.09c-1.67,0.98-3.51,0.6-4.46-0.9
						c-0.48-0.76-0.57-1.58-0.37-2.43c1.19-5.15,2.38-10.3,3.59-15.44c0.13-0.56,0.02-0.89-0.43-1.28
						c-3.96-3.37-7.88-6.77-11.83-10.14c-0.68-0.58-1.19-1.25-1.47-2.08C449.79,406.42,449.79,405.97,449.79,405.52z"/>
				</g>
			</g>
		</g>
	</g>
</g>
<g id="Layer_2" class="st2">
	<g class="st3">
		<g>
			<path class="st4" d="M606.85,311.38c-4.68,0-8.75-0.8-12.21-2.43l25.12-43.55c1.68,0.89,3.23,1.96,4.63,3.27
				c4.44,4.02,6.64,10.15,6.64,18.43c0,8.23-2.2,14.36-6.64,18.29C620.09,309.37,614.19,311.38,606.85,311.38z"/>
			<path class="st4" d="M689.49,287c0,11.05-1.88,20.63-5.78,29.3c-3.95,8.41-9.78,16.52-17.39,24.18
				c-7.35,7.15-16.17,12.82-26.26,16.78c-9.63,4.05-20.22,6.08-31.63,6.08h-43.64l1.47-2.53l26.41-45.72l1.27-2.23
				c4.16,1.98,8.97,2.99,14.5,2.99c8.62,0,15.56-2.43,20.73-7.15c5.27-4.71,8.01-12.01,8.01-21.69s-2.74-17.03-8.06-21.85
				c-1.62-1.52-3.45-2.84-5.42-3.85l1.27-2.18l21.44-37.15l1.27-2.23c6.99,3.65,13.33,8.31,18.91,13.84
				c7.7,7.55,13.48,15.56,17.23,23.87C687.56,265.76,689.49,275.69,689.49,287z"/>
			<path class="st4" d="M970.7,436.83H549.64c-12.11,0-19.72-13.13-13.63-23.62l27.32-47.34h45.11c11.81,0,22.66-2.08,32.59-6.23
				c10.44-4.11,19.46-9.88,27.12-17.39c7.81-7.86,13.79-16.17,17.89-24.89c4-8.97,5.98-19.06,5.98-30.36
				c0-11.76-1.98-21.95-5.88-30.56c-3.9-8.67-9.83-16.88-17.74-24.63c-5.83-5.78-12.32-10.49-19.46-14.24l97.57-168.99
				c6.08-10.49,21.24-10.49,27.27,0l210.56,364.65C990.37,423.7,982.81,436.83,970.7,436.83z"/>
		</g>
		<g>
			<path class="st4" d="M86.39,426.79h-7.72v0.79c0,4.34-1.16,7.81-3.47,10.4c-2.31,2.59-5.63,3.9-9.97,3.9H49.23
				c-2.97,0-5.66-0.55-8.09-1.64c-2.43-1.09-4.36-2.63-5.78-4.59s-2.13-4.21-2.13-6.72c0-2.47,0.52-6.95,1.58-13.44l4.44,0.73
				c-0.89,5.96-1.34,9.86-1.34,11.68c0,1.91,0.49,3.61,1.49,5.11c0.99,1.5,2.33,2.65,4.01,3.46s3.52,1.22,5.5,1.22l16.06,0.06
				c2.88,0,5.1-0.92,6.66-2.77c1.56-1.85,2.34-4.19,2.34-7.02c0-0.53-0.02-0.92-0.06-1.16h-1.46c-3.16,0-5.66-0.58-7.48-1.76
				l1.95-3.47c0.73,0.49,1.51,0.78,2.34,0.89c0.83,0.1,2.04,0.15,3.62,0.15h13.5V426.79z M49.78,446.26h4.62v5.11h-4.62V446.26z
				 M57.38,446.26H62v5.11h-4.62V446.26z"/>
			<path class="st4" d="M109.21,422.59v4.2H86.4v-4.2h9.06v-26.21h4.68v26.21H109.21z M95.46,431.66h4.62v5.11h-4.62V431.66z"/>
			<path class="st4" d="M122.95,396.38v30.41h-13.75v-4.2h9.06v-26.21H122.95z M114.44,431.66h4.62v5.11h-4.62V431.66z
				 M122.04,431.66h4.62v5.11h-4.62V431.66z"/>
			<path class="st4" d="M154.22,426.79h-7.6v0.67c0,9.65-3.35,14.48-10.04,14.48c-0.65,0-1.25-0.02-1.79-0.06
				c-0.55-0.04-1.02-0.08-1.43-0.12l-1.28-0.12v-4.14c2.02,0.16,3.3,0.24,3.83,0.24c2.02,0,3.54-0.8,4.53-2.4
				c0.99-1.6,1.49-3.85,1.49-6.72v-32.17h4.69v26.15h7.6V426.79z"/>
			<path class="st4" d="M190.22,422.59v4.2h-36.01v-4.2h24.39v-16.48c0-2.02-0.52-3.56-1.58-4.59c-1.05-1.03-2.64-1.55-4.75-1.55
				c-1.82,0-5.44,0.33-10.83,0.98l-1.7,0.18l-0.18-3.47c6.12-1.26,10.71-1.89,13.75-1.89c6.65,0,9.97,3.47,9.97,10.4v16.42H190.22z
				 M169.91,431.66h4.62v5.11h-4.62V431.66z"/>
			<path class="st4" d="M203.97,396.38v30.41h-13.75v-4.2h9.06v-26.21H203.97z M195.51,385.61h4.62v5.11h-4.62V385.61z
				 M203.12,385.61h4.62v5.11h-4.62V385.61z"/>
		</g>
		<path class="st4" d="M683.7,257.08c-3.84-8.48-9.67-16.52-17.44-24.11c-7.68-7.59-16.55-13.35-26.57-17.36
			c-9.67-3.82-20.43-5.75-32.4-5.75c-23.43,0-43.11,7.69-59.01,23.12c-15.5,14.98-23.23,32.99-23.23,54.03
			c0,7.64,1.1,15.18,3.34,22.57h-18.53c-6.33,0-11.47-5.11-11.47-11.42v-67.47c0-6.14-5-11.11-11.16-11.11h-32.95
			c-6.16,0-11.16,4.97-11.16,11.11v50.56c0,10.17-0.75,16.87-2.19,20.04c-1.55,5.41-7.73,8.19-18.49,8.29h-15.6
			c2.14-6.9,3.24-14.44,3.24-22.57c0-11.51-1.94-21.48-5.78-29.92c-3.84-8.48-9.67-16.52-17.44-24.11
			c-7.73-7.59-16.55-13.35-26.57-17.36c-9.67-3.82-20.48-5.75-32.45-5.75c-23.43,0-43.11,7.69-59.01,23.12
			c-15.45,14.98-23.23,32.99-23.23,54.03c0,7.64,1.15,15.18,3.34,22.57h-17.59c-6.33,0-11.46-5.11-11.46-11.41V230.4
			c0-5.98-4.87-10.82-10.87-10.82h-33.63c-6.01,0-10.87,4.85-10.87,10.82v50.84c0,10.17-0.7,16.87-2.04,20.04
			c-1.55,5.41-7.73,8.19-18.49,8.29h-37.15c-6.45,0-11.67-5.2-11.67-11.62V149.6c0-5.88-4.79-10.65-10.7-10.65H49.93
			c-5.91,0-10.7,4.77-10.7,10.65v165.04c0,27.36,22.29,49.55,49.77,49.55h76.9c17.39,0,34.09-6.9,46.4-19.15l6.49,6.46
			c8.16,8.12,19.23,12.69,30.78,12.69h194.84c17.39,0,34.09-6.9,46.4-19.15l6.44,6.41c8.19,8.16,19.31,12.74,30.9,12.74h79.14
			c11.61,0,22.28-2.03,32.05-6.1c10.27-4.02,19.14-9.67,26.66-17.02c7.68-7.69,13.56-15.83,17.59-24.36
			c3.94-8.78,5.88-18.65,5.88-29.72C689.49,275.48,687.54,265.51,683.7,257.08z M346.58,306.39c-4.64,4.22-10.87,6.35-18.74,6.35
			c-7.78,0-14.01-2.13-18.74-6.35c-4.83-4.17-7.28-10.67-7.28-19.4c0-8.73,2.44-15.23,7.28-19.55c4.83-4.37,11.06-6.5,18.74-6.5
			c7.78,0,14.01,2.13,18.74,6.5c4.69,4.27,7.03,10.77,7.03,19.55C353.61,295.73,351.27,302.23,346.58,306.39z M625.99,306.39
			c-4.59,4.22-10.87,6.35-18.69,6.35s-14.06-2.13-18.74-6.35c-4.88-4.17-7.33-10.67-7.33-19.4c0-8.73,2.44-15.23,7.33-19.55
			c4.78-4.37,11.01-6.5,18.74-6.5c7.73,0,14.01,2.13,18.69,6.5c4.73,4.27,7.08,10.77,7.08,19.55
			C633.07,295.73,630.72,302.23,625.99,306.39z"/>
		<g>
			<g>
				<path class="st4" d="M162.41,166.94c0.04-0.03,0.1-0.06,0.12-0.1c0.52-1.46,1.63-2.09,3.15-2.21c3.98-0.33,7.97-0.69,11.95-1.03
					c1.3-0.11,2.6-0.24,3.91-0.34c0.39-0.03,0.58-0.2,0.73-0.55c2.12-4.89,4.26-9.77,6.41-14.64c0.88-2,3.33-2.55,4.95-1.13
					c0.42,0.37,0.68,0.83,0.9,1.33c2.09,4.78,4.19,9.56,6.26,14.34c0.2,0.47,0.47,0.62,0.96,0.66c4.13,0.35,8.27,0.72,12.4,1.09
					c1.25,0.11,2.49,0.22,3.74,0.34c1.35,0.13,2.26,0.86,2.67,2.09c0.41,1.25,0.05,2.35-0.95,3.22c-3.08,2.66-6.18,5.31-9.28,7.96
					c-0.98,0.84-1.96,1.7-2.96,2.52c-0.33,0.27-0.42,0.52-0.32,0.94c1.21,5.12,2.39,10.24,3.59,15.36c0.47,2-0.67,3.65-2.7,3.9
					c-0.77,0.09-1.45-0.16-2.1-0.54c-4.53-2.66-9.08-5.3-13.6-7.97c-0.49-0.29-0.82-0.3-1.31-0.01c-4.54,2.68-9.1,5.33-13.65,7.99
					c-1.66,0.97-3.49,0.6-4.43-0.89c-0.47-0.75-0.56-1.56-0.37-2.4c1.18-5.09,2.36-10.17,3.57-15.25c0.13-0.56,0.02-0.88-0.42-1.26
					c-3.92-3.33-7.82-6.69-11.74-10.02c-0.68-0.58-1.18-1.23-1.46-2.06C162.41,167.83,162.41,167.39,162.41,166.94z"/>
			</g>
			<g>
				<path class="st4" d="M542.55,166.94c0.04-0.03,0.1-0.06,0.12-0.1c0.52-1.46,1.63-2.09,3.15-2.21c3.98-0.33,7.97-0.69,11.95-1.03
					c1.3-0.11,2.6-0.24,3.91-0.34c0.39-0.03,0.58-0.2,0.73-0.55c2.12-4.89,4.26-9.77,6.41-14.64c0.88-2,3.33-2.55,4.95-1.13
					c0.42,0.37,0.68,0.83,0.9,1.33c2.09,4.78,4.19,9.56,6.26,14.34c0.2,0.47,0.47,0.62,0.96,0.66c4.13,0.35,8.27,0.72,12.4,1.09
					c1.25,0.11,2.49,0.22,3.74,0.34c1.35,0.13,2.26,0.86,2.67,2.09c0.41,1.25,0.05,2.35-0.95,3.22c-3.08,2.66-6.18,5.31-9.28,7.96
					c-0.98,0.84-1.96,1.7-2.96,2.52c-0.33,0.27-0.42,0.52-0.32,0.94c1.21,5.12,2.39,10.24,3.59,15.36c0.47,2-0.67,3.65-2.7,3.9
					c-0.77,0.09-1.45-0.16-2.1-0.54c-4.53-2.66-9.08-5.3-13.6-7.97c-0.49-0.29-0.82-0.3-1.31-0.01c-4.54,2.68-9.1,5.33-13.65,7.99
					c-1.66,0.97-3.49,0.6-4.43-0.89c-0.47-0.75-0.56-1.56-0.37-2.4c1.18-5.09,2.36-10.17,3.57-15.25c0.13-0.56,0.02-0.88-0.42-1.26
					c-3.92-3.33-7.82-6.69-11.74-10.02c-0.68-0.58-1.18-1.23-1.46-2.06C542.55,167.83,542.55,167.39,542.55,166.94z"/>
			</g>
			<g>
				<path class="st4" d="M608.1,166.94c0.04-0.03,0.1-0.06,0.12-0.1c0.52-1.46,1.63-2.09,3.15-2.21c3.98-0.33,7.97-0.69,11.95-1.03
					c1.3-0.11,2.6-0.24,3.91-0.34c0.39-0.03,0.58-0.2,0.73-0.55c2.12-4.89,4.26-9.77,6.41-14.64c0.88-2,3.33-2.55,4.95-1.13
					c0.42,0.37,0.68,0.83,0.9,1.33c2.09,4.78,4.19,9.56,6.26,14.34c0.2,0.47,0.47,0.62,0.96,0.66c4.13,0.35,8.27,0.72,12.4,1.09
					c1.25,0.11,2.49,0.22,3.74,0.34c1.35,0.13,2.26,0.86,2.67,2.09c0.41,1.25,0.05,2.35-0.95,3.22c-3.08,2.66-6.18,5.31-9.28,7.96
					c-0.98,0.84-1.96,1.7-2.96,2.52c-0.33,0.27-0.42,0.52-0.32,0.94c1.21,5.12,2.39,10.24,3.59,15.36c0.47,2-0.67,3.65-2.7,3.9
					c-0.77,0.09-1.45-0.16-2.1-0.54c-4.53-2.66-9.08-5.3-13.6-7.97c-0.49-0.29-0.82-0.3-1.31-0.01c-4.54,2.68-9.1,5.33-13.65,7.99
					c-1.66,0.97-3.49,0.6-4.43-0.89c-0.47-0.75-0.56-1.56-0.37-2.4c1.18-5.09,2.36-10.17,3.57-15.25c0.13-0.56,0.02-0.88-0.42-1.26
					c-3.92-3.33-7.82-6.69-11.74-10.02c-0.68-0.58-1.18-1.23-1.46-2.06C608.1,167.83,608.1,167.39,608.1,166.94z"/>
			</g>
			<g>
				<path class="st4" d="M380.97,403c0.04-0.03,0.1-0.06,0.12-0.1c0.52-1.46,1.63-2.09,3.15-2.21c3.98-0.33,7.97-0.69,11.95-1.03
					c1.3-0.11,2.6-0.24,3.91-0.34c0.39-0.03,0.58-0.2,0.73-0.55c2.12-4.89,4.26-9.77,6.41-14.64c0.88-2,3.33-2.55,4.95-1.13
					c0.42,0.37,0.68,0.83,0.9,1.33c2.09,4.78,4.19,9.56,6.26,14.34c0.2,0.47,0.47,0.62,0.96,0.66c4.13,0.35,8.27,0.72,12.4,1.09
					c1.25,0.11,2.49,0.22,3.74,0.34c1.35,0.13,2.26,0.86,2.67,2.09c0.41,1.25,0.05,2.35-0.95,3.22c-3.08,2.66-6.18,5.31-9.28,7.96
					c-0.98,0.84-1.96,1.7-2.96,2.52c-0.33,0.27-0.42,0.52-0.32,0.94c1.21,5.12,2.39,10.24,3.59,15.36c0.47,2-0.67,3.65-2.7,3.9
					c-0.77,0.09-1.45-0.16-2.1-0.54c-4.53-2.66-9.08-5.3-13.6-7.97c-0.49-0.29-0.82-0.3-1.31-0.01c-4.54,2.68-9.1,5.33-13.65,7.99
					c-1.66,0.97-3.49,0.6-4.43-0.89c-0.47-0.75-0.56-1.56-0.37-2.4c1.18-5.09,2.36-10.17,3.57-15.25c0.13-0.56,0.02-0.88-0.42-1.26
					c-3.92-3.33-7.82-6.69-11.74-10.02c-0.68-0.58-1.18-1.23-1.46-2.06C380.97,403.89,380.97,403.45,380.97,403z"/>
			</g>
			<g>
				<path class="st4" d="M446.52,403c0.04-0.03,0.1-0.06,0.12-0.1c0.52-1.46,1.63-2.09,3.15-2.21c3.98-0.33,7.97-0.69,11.95-1.03
					c1.3-0.11,2.6-0.24,3.91-0.34c0.39-0.03,0.58-0.2,0.73-0.55c2.12-4.89,4.26-9.77,6.41-14.64c0.88-2,3.33-2.55,4.95-1.13
					c0.42,0.37,0.68,0.83,0.9,1.33c2.09,4.78,4.19,9.56,6.26,14.34c0.2,0.47,0.47,0.62,0.96,0.66c4.13,0.35,8.27,0.72,12.4,1.09
					c1.25,0.11,2.49,0.22,3.74,0.34c1.35,0.13,2.26,0.86,2.67,2.09c0.41,1.25,0.05,2.35-0.95,3.22c-3.08,2.66-6.18,5.31-9.28,7.96
					c-0.98,0.84-1.96,1.7-2.96,2.52c-0.33,0.27-0.42,0.52-0.32,0.94c1.21,5.12,2.39,10.24,3.59,15.36c0.47,2-0.67,3.65-2.7,3.9
					c-0.77,0.09-1.45-0.16-2.1-0.54c-4.53-2.66-9.08-5.3-13.6-7.97c-0.49-0.29-0.82-0.3-1.31-0.01c-4.54,2.68-9.1,5.33-13.65,7.99
					c-1.66,0.97-3.49,0.6-4.43-0.89c-0.47-0.75-0.56-1.56-0.37-2.4c1.18-5.09,2.36-10.17,3.57-15.25c0.13-0.56,0.02-0.88-0.42-1.26
					c-3.92-3.33-7.82-6.69-11.74-10.02c-0.68-0.58-1.18-1.23-1.46-2.06C446.52,403.89,446.52,403.45,446.52,403z"/>
			</g>
		</g>
	</g>
</g>
</svg>
